<svg width="48" height="48" viewBox="0 0 48 48" fill="none" xmlns="http://www.w3.org/2000/svg">
<circle cx="24" cy="24" r="24" fill="#3DD598"/>
<path d="M30.1832 17.3495C29.7282 16.8945 28.9932 16.8945 28.5382 17.3495L21.9582 23.9295L23.6032 25.5745L30.1832 18.9829C30.6266 18.5395 30.6266 17.7929 30.1832 17.3495ZM35.1299 17.3379L23.6032 28.8645L19.5432 24.8162C19.0882 24.3612 18.3532 24.3612 17.8982 24.8162C17.4432 25.2712 17.4432 26.0062 17.8982 26.4612L22.7749 31.3379C23.2299 31.7929 23.9649 31.7929 24.4199 31.3379L36.7749 18.9945C37.2299 18.5395 37.2299 17.8045 36.7749 17.3495H36.7632C36.3199 16.8829 35.5849 16.8829 35.1299 17.3379ZM11.3066 26.4729L16.1832 31.3495C16.6382 31.8045 17.3732 31.8045 17.8282 31.3495L18.6449 30.5329L12.9516 24.8162C12.4966 24.3612 11.7616 24.3612 11.3066 24.8162C10.8516 25.2712 10.8516 26.0179 11.3066 26.4729Z" fill="#1E1E1E"/>
</svg>
