<svg width="48" height="48" viewBox="0 0 48 48" fill="none" xmlns="http://www.w3.org/2000/svg">
<circle cx="24" cy="24" r="24" fill="#FFB800"/>
<path d="M31.3498 16.6615C30.8948 16.2065 30.1598 16.2065 29.7048 16.6615L23.9998 22.3548L18.2948 16.6498C17.8398 16.1948 17.1048 16.1948 16.6498 16.6498C16.1948 17.1048 16.1948 17.8398 16.6498 18.2948L22.3548 23.9998L16.6498 29.7048C16.1948 30.1598 16.1948 30.8948 16.6498 31.3498C17.1048 31.8048 17.8398 31.8048 18.2948 31.3498L23.9998 25.6448L29.7048 31.3498C30.1598 31.8048 30.8948 31.8048 31.3498 31.3498C31.8048 30.8948 31.8048 30.1598 31.3498 29.7048L25.6448 23.9998L31.3498 18.2948C31.7932 17.8515 31.7932 17.1048 31.3498 16.6615Z" fill="#1E1E1E"/>
</svg>
