<svg width="26" height="26" viewBox="0 0 26 26" fill="none" xmlns="http://www.w3.org/2000/svg">
<path d="M25.61 16.145C23.8737 23.1094 16.8196 27.3474 9.85441 25.6111C2.8925 23.8747 -1.34591 16.8206 0.390812 9.85668C2.12631 2.89152 9.18003 -1.34729 16.1432 0.389023C23.1079 2.12534 27.3459 9.18027 25.6096 16.145H25.61Z" fill="#F0B90B"/>
<path d="M13.0002 6L14.7345 7.77083L10.3673 12.125L8.63292 10.3958L13.0002 6Z" fill="white"/>
<path d="M15.633 8.62536L17.3674 10.3962L10.3673 17.3754L8.63292 15.6462L15.633 8.62536Z" fill="white"/>
<path d="M7.73437 11.2499L9.46873 13.0207L7.73437 14.7499L6.00002 13.0207L7.73437 11.2499Z" fill="white"/>
<path d="M18.2659 11.2499L20.0003 13.0207L13.0002 19.9999L11.2658 18.2707L18.2659 11.2499Z" fill="white"/>
</svg>
