<svg width="26" height="26" viewBox="0 0 26 26" fill="none" xmlns="http://www.w3.org/2000/svg">
<path d="M25.61 16.145C23.8737 23.1094 16.8196 27.3474 9.85441 25.6111C2.8925 23.8747 -1.34591 16.8206 0.390812 9.85668C2.12631 2.89152 9.18003 -1.34729 16.1432 0.389023C23.1079 2.12534 27.3459 9.18027 25.6096 16.145H25.61Z" fill="#F0B90B"/>
<path fill-rule="evenodd" clip-rule="evenodd" d="M10.2822 11.8826L13.0013 9.16468L15.7216 11.8848L17.3029 10.3025L13.0013 6L8.69981 10.3014L10.2822 11.8826ZM6 13.0002L7.58181 11.4185L9.16362 13.0002L7.58181 14.582L6 13.0002ZM13.0013 16.8364L10.2822 14.1174L8.69759 15.6975L8.69981 15.6997L13.0013 20L17.3029 15.6975L17.304 15.6964L15.7216 14.1163L13.0013 16.8364ZM16.8364 13.0006L18.4182 11.4189L20 13.0006L18.4182 14.5824L16.8364 13.0006ZM13.0013 11.3939L14.6058 12.9994H14.607L14.6058 13.0006L13.0013 14.6061L11.3968 13.0028L11.3946 12.9994L11.3968 12.9972L11.6777 12.7164L11.8148 12.5804L13.0013 11.3939Z" fill="white"/>
</svg>
