<svg width="61" height="60" viewBox="0 0 61 60" fill="none" xmlns="http://www.w3.org/2000/svg">
<rect x="0.5" width="60" height="60" rx="30" fill="white"/>
<path fill-rule="evenodd" clip-rule="evenodd" d="M41.8604 35.2929C41.2393 37.2942 39.9972 39.0022 38.1339 40.417C36.3051 41.8317 34.0623 42.539 31.4054 42.539C27.8513 42.539 24.7976 41.4176 22.2442 39.1748C19.7253 36.9319 18.4659 33.9127 18.4659 30.1172C18.4659 26.3216 19.7426 23.3024 22.296 21.0595C24.8839 18.8167 27.9548 17.6953 31.5089 17.6953C34.1313 17.6953 36.6156 18.5234 38.962 20.1797L42.4815 15.2109C39.3761 12.7265 35.7013 11.4843 31.4571 11.4843C25.9363 11.4843 21.2781 13.2959 17.4825 16.9189C13.7214 20.542 11.8409 24.9414 11.8409 30.1172C11.8409 35.2929 13.7214 39.6923 17.4825 43.3154C21.2436 46.9384 25.8673 48.75 31.3536 48.75C36.3569 48.75 40.5665 47.0247 43.9825 43.5742C46.3408 41.192 47.8851 38.4316 48.6153 35.2929L41.8604 35.2929Z" fill="#111111"/>
<path d="M49.0548 29.082L30.0597 29.082L30.0597 35.2929L41.8604 35.2929L48.6153 35.2929C48.9428 33.8853 49.1065 32.4016 49.1065 30.8418C49.1065 30.1172 49.0893 29.5306 49.0548 29.082Z" fill="#111111"/>
<path d="M49.1067 29.0817L29.9563 29.0817L29.9563 35.2927L42.2747 35.2927L48.6672 35.2927C48.9947 33.885 49.1585 32.4013 49.1585 30.8415C49.1585 30.1169 49.1412 29.5303 49.1067 29.0817Z" fill="#FF001F"/>
</svg>
