<svg width="61" height="60" viewBox="0 0 61 60" fill="none" xmlns="http://www.w3.org/2000/svg">
<rect x="0.5" width="60" height="60" rx="30" fill="white"/>
<path d="M31.8254 20.2738C35.2791 20.2738 37.9297 21.4213 39.7771 23.7161C41.6245 25.9707 42.5481 29.252 42.5481 33.5599V47.8123H36.7651V33.5599C36.7651 30.8624 36.3032 28.8695 35.3795 27.5812C34.4559 26.2526 32.9097 25.5883 30.741 25.5883C28.9338 25.5883 27.3877 26.3532 26.1025 27.8831C24.8576 29.3728 24.2351 31.3456 24.2351 33.8015V47.8123H18.452V20.757H24.2351V24.1389C24.7572 23.1324 25.6809 22.2466 27.0061 21.4817C28.3314 20.6764 29.9378 20.2738 31.8254 20.2738Z" fill="#111111"/>
<rect x="18.452" y="10.5207" width="24.0961" height="5.73718" fill="#FF001F"/>
</svg>
