<svg width="20" height="20" viewBox="0 0 20 20" fill="none" xmlns="http://www.w3.org/2000/svg">
<path d="M19.7 12.4192C18.3644 17.7764 12.9381 21.0364 7.58031 19.7008C2.22499 18.3652 -1.03532 12.9389 0.300619 7.58206C1.63562 2.22425 7.06156 -1.03638 12.4178 0.299249C17.7753 1.63487 21.0353 7.06175 19.6997 12.4192H19.7Z" fill="#F0B90B"/>
<path fill-rule="evenodd" clip-rule="evenodd" d="M7.90935 9.14049L10.001 7.04976L12.0935 9.14219L13.3099 7.92501L10.001 4.61539L6.69213 7.92415L7.90935 9.14049ZM4.61536 10.0002L5.83213 8.7835L7.04891 10.0002L5.83213 11.217L4.61536 10.0002ZM10.001 12.9511L7.90934 10.8595L6.69042 12.075L6.69212 12.0767L10.001 15.3846L13.3099 12.075L13.3107 12.0742L12.0935 10.8587L10.001 12.9511ZM12.951 10.0004L14.1678 8.78367L15.3846 10.0004L14.1678 11.2171L12.951 10.0004ZM10.001 8.76461L11.2352 9.99965H11.2361L11.2352 10.0005L10.001 11.2356L8.76676 10.0022L8.76506 9.99965L8.76676 9.99795L8.98282 9.7819L9.08829 9.67728L10.001 8.76461Z" fill="white"/>
</svg>
