<svg width="44" height="44" viewBox="0 0 44 44" fill="none" xmlns="http://www.w3.org/2000/svg">
<path d="M0 8C0 3.58172 3.58172 0 8 0H36C40.4183 0 44 3.58172 44 8V36C44 40.4183 40.4183 44 36 44H8C3.58172 44 0 40.4183 0 36V8Z" fill="#252525"/>
<path d="M23.3456 15.2308C25.8783 15.2308 27.8221 16.0722 29.1768 17.7551C30.5316 19.4085 31.2089 21.8148 31.2089 24.9739V35.4256H26.968V24.9739C26.968 22.9958 26.6293 21.5343 25.952 20.5895C25.2746 19.6152 24.1407 19.128 22.5504 19.128C21.2251 19.128 20.0913 19.689 19.1488 20.8109C18.2359 21.9033 17.7794 23.35 17.7794 25.1511V35.4256H13.5385V15.5851H17.7794V18.0651C18.1622 17.327 18.8396 16.6775 19.8115 16.1165C20.7834 15.526 21.9614 15.2308 23.3456 15.2308Z" fill="white"/>
<rect x="13.5385" y="8.46155" width="17.6705" height="4.20726" fill="#FF001F"/>
</svg>
