<svg width="174" height="44" viewBox="0 0 174 44" fill="none" xmlns="http://www.w3.org/2000/svg">
<g clip-path="url(#clip0)">
<path d="M12.626 16.808C15.8867 16.808 18.3892 17.8886 20.1333 20.0498C21.8774 22.1731 22.7495 25.2632 22.7495 29.3202V42.7424H17.2896V29.3202C17.2896 26.7799 16.8536 24.903 15.9815 23.6897C15.1095 22.4385 13.6497 21.8129 11.6022 21.8129C9.89604 21.8129 8.43628 22.5333 7.22297 23.9741C6.04758 25.377 5.45988 27.2349 5.45988 29.5477V42.7424H0V17.263H5.45988V20.4479C5.95279 19.5 6.82485 18.6659 8.07608 17.9455C9.3273 17.1872 10.8439 16.808 12.626 16.808Z" fill="white"/>
<path d="M31.0638 42.7424V17.263H36.5237V42.7424H31.0638Z" fill="white"/>
<path d="M73.2802 16.808C76.3514 16.808 78.7211 17.8886 80.3894 20.0498C82.0956 22.211 82.9487 25.3011 82.9487 29.3202V42.7424H77.4889V29.3202C77.4889 26.8178 77.0718 24.9409 76.2376 23.6897C75.4414 22.4385 74.1143 21.8129 72.2565 21.8129C70.5503 21.8129 69.1663 22.5143 68.1047 23.9172C67.081 25.3201 66.5691 27.1969 66.5691 29.5477V42.7424H61.1092V29.3202C61.1092 26.8178 60.6921 24.9409 59.858 23.6897C59.0618 22.4385 57.7347 21.8129 55.8768 21.8129C54.1706 21.8129 52.7867 22.5143 51.725 23.9172C50.7013 25.3201 50.1894 27.1969 50.1894 29.5477V42.7424H44.7296V17.263H50.1894V20.4479C50.7203 19.6896 51.2132 19.1019 51.6682 18.6848C52.1232 18.2298 52.8056 17.8128 53.7156 17.4336C54.6635 17.0165 55.7252 16.808 56.9006 16.808C60.5026 16.808 63.1187 18.2488 64.7491 21.1304C66.0004 19.5379 67.2516 18.4194 68.5028 17.7749C69.7919 17.1303 71.3844 16.808 73.2802 16.808Z" fill="white"/>
<path d="M96.1772 5.74121V20.4479C98.3384 18.0213 101.068 16.808 104.367 16.808C107.893 16.808 110.889 18.1161 113.353 20.7323C115.856 23.3106 117.107 26.4007 117.107 30.0027C117.107 33.6805 115.856 36.8086 113.353 39.3869C110.889 41.9272 107.893 43.1974 104.367 43.1974C101.068 43.1974 98.3384 41.9841 96.1772 39.5575V42.7424H90.7173V5.74121H96.1772ZM98.3953 35.8038C99.9119 37.3963 101.751 38.1925 103.912 38.1925C106.073 38.1925 107.893 37.3963 109.372 35.8038C110.889 34.2114 111.647 32.2777 111.647 30.0027C111.647 27.7278 110.889 25.7941 109.372 24.2016C107.893 22.6091 106.073 21.8129 103.912 21.8129C101.751 21.8129 99.9119 22.6091 98.3953 24.2016C96.9166 25.7941 96.1772 27.7278 96.1772 30.0027C96.1772 32.2777 96.9166 34.2114 98.3953 35.8038Z" fill="white"/>
<path d="M134.288 43.1974C131.027 43.1974 128.525 42.1358 126.781 40.0125C125.037 37.8513 124.165 34.7422 124.165 30.6852V17.263H129.625V31.1402C129.625 33.4531 130.061 35.2161 130.933 36.4294C131.805 37.6048 133.264 38.1925 135.312 38.1925C137.056 38.1925 138.516 37.4532 139.691 35.9745C140.867 34.4957 141.454 32.5052 141.454 30.0027V17.263H146.914V42.7424H141.454V39.5575C140.961 40.5054 140.089 41.3585 138.838 42.1168C137.587 42.8372 136.07 43.1974 134.288 43.1974Z" fill="white"/>
<path d="M165.867 26.8178C171.289 28.069 174 30.8369 174 35.1213C174 37.51 173.09 39.4627 171.27 40.9794C169.488 42.4581 167.384 43.1974 164.957 43.1974C161.128 43.1974 157.772 41.7566 154.89 38.875L157.62 34.8939C159.857 37.0551 162.189 38.1546 164.616 38.1925C165.867 38.1925 166.834 37.9082 167.516 37.3394C168.199 36.7328 168.54 36.0882 168.54 35.4057C168.54 34.0028 167.365 32.9601 165.014 32.2777C161.677 31.3677 159.383 30.344 158.132 29.2065C156.881 28.0311 156.255 26.3438 156.255 24.1447C156.255 22.1731 157.014 20.4669 158.53 19.0261C160.085 17.5474 162.208 16.808 164.9 16.808C167.63 16.808 171.086 18.4194 173.247 20.1635L170.688 24.1447C169.171 23.0831 167.516 21.8129 164.9 21.8129C163.914 21.8129 163.137 22.0214 162.568 22.4385C162 22.8556 161.715 23.3674 161.715 23.9741C161.715 24.6945 162 25.2632 162.568 25.6803C163.175 26.0595 164.275 26.4386 165.867 26.8178Z" fill="white"/>
<rect x="44.7417" width="38.32" height="5.7194" fill="#FF001F"/>
</g>
<defs>
<clipPath id="clip0">
<rect width="174" height="43.1973" fill="white"/>
</clipPath>
</defs>
</svg>
