<?xml version="1.0" encoding="utf-8"?>
<!-- Generator: Adobe Illustrator 24.1.0, SVG Export Plug-In . SVG Version: 6.00 Build 0)  -->
<svg version="1.1" id="Слой_1" xmlns="http://www.w3.org/2000/svg" xmlns:xlink="http://www.w3.org/1999/xlink" x="0px" y="0px"
	 viewBox="0 0 48 44.4" style="enable-background:new 0 0 48 44.4;" xml:space="preserve">
<style type="text/css">
	.st0{fill:#E94B35;}
	.st1{fill-rule:evenodd;clip-rule:evenodd;fill:#FFFFFF;}
</style>
<rect y="6.1" class="st0" width="48" height="32"/>
<path class="st1" d="M28.6,29.1c-1.5,1.2-3.5,2-5.6,2c-5,0-9-4-9-9s4-9,9-9c2.1,0,4.1,0.7,5.6,2c-0.8-0.3-1.7-0.5-2.6-0.5
	c-4.1,0-7.5,3.4-7.5,7.5s3.4,7.5,7.5,7.5C26.9,29.6,27.8,29.5,28.6,29.1z"/>
<path class="st1" d="M31.5,23.3l-1.3,2.5l-0.5-2.8l-2.8-0.5l2.5-1.3L29,18.4l2.1,2l2.6-1.2l-1.2,2.6l2,2.1L31.5,23.3z"/>
</svg>
